<?xml version="1.0" encoding="utf-8"?>
<!-- Generator: Adobe Illustrator 27.5.0, SVG Export Plug-In . SVG Version: 6.00 Build 0)  -->
<svg version="1.1" xmlns="http://www.w3.org/2000/svg" xmlns:xlink="http://www.w3.org/1999/xlink" x="0px" y="0px"
	 viewBox="0 0 500 500" style="enable-background:new 0 0 500 500;" xml:space="preserve">
<g id="BACKGROUND">
	<rect x="0" style="fill-rule:evenodd;clip-rule:evenodd;fill:#FFFFFF;" width="500" height="500"/>
</g>
<g id="OBJECTS">
	<g>
		<path d="M433.234,317.549c-6.936-4.723-9.278-26.322-15.012-42.36c0.593,0.982,1.19,1.946,1.799,2.893
			c1.264,1.949,2.828,3.682,4.465,4.956c1.642,1.302,3.44,2.09,5.055,2.526c1.632,0.421,3.1,0.441,4.268,0.341
			c1.174-0.105,2.059-0.36,2.647-0.55c0.587-0.201,0.878-0.354,0.878-0.354s-0.32,0.081-0.924,0.152
			c-0.602,0.076-1.495,0.124-2.605,0.031c-1.109-0.082-2.43-0.375-3.821-0.945c-1.388-0.585-2.81-1.52-4.109-2.802
			c-1.321-1.286-2.449-2.892-3.46-4.8c-1.012-1.903-2.003-4.068-3.053-6.255c-1.072-2.189-2.162-4.489-3.428-6.805
			c-1.289-2.297-2.77-4.628-4.668-6.716c-1.882-2.09-4.202-3.887-6.718-5.111c-0.628-0.315-1.258-0.583-1.909-0.844l-0.994-0.366
			l-0.904-0.278c-1.4-0.405-2.723-0.623-4.056-0.738c-1.323-0.102-2.611-0.085-3.856,0.003c-1.192,0.109-2.337,0.287-3.442,0.498
			c-1.625-0.008-3.308,0.095-5.053,0.31c-6.423,0.794-12.602,4.444-16.333,7.333c-1.323,1.024-2.924,2.55-4.442,4.092
			c-3.095-5.418-6.527-10.251-9.231-12.516c-6.263-5.248-26.82-17.764-35.083-19.988c-8.265-2.223-39.154-17.333-41.076-18.421
			c-0.699-0.395-3.471-2.507-6.827-5.201c0.087,0.009,0.177,0.023,0.264,0.031c1.755,1.178,3.664,2.162,5.753,2.843
			c5.215,1.699,9.66,1.639,13.175,0.908c0.439,0.557,0.839,1.084,1.184,1.57c1.496,2.069,2.251,3.35,2.251,3.35
			s-0.083-0.359-0.29-1.02c-0.218-0.656-0.526-1.632-1.038-2.83c-0.19-0.438-0.405-0.924-0.638-1.428
			c3.83-1.067,6.325-2.85,7.215-3.563c4.266,1.173,7.418,2.422,7.418,2.422s-7.024-7.722-18.126-8.136
			c-0.866-0.032-1.774-0.077-2.698-0.129c-1.162-1.279-2.492-2.547-4.028-3.715c2.406,0.123,3.899-0.142,3.899-0.142
			c-7.667-2.383-11.954-5.351-15.692-9.108c2.175,0.466,4.369,1.171,6.295,2.153c4.56,2.326,9.973,8.026,17.214,10.59
			c10.359,3.67,16.755-2.645,16.755-2.645s-5.384,2.127-10.214,1.426c-4.828-0.701-6.913-2.177-10.613-4.308
			c-1.304-0.751-2.424-1.713-3.806-2.886c0.148,0.022,0.299,0.059,0.446,0.073c0.86,0.051,1.662,0.151,2.427,0.075
			c1.52-0.005,2.819-0.393,3.847-0.706c0.017-0.006,0.031-0.013,0.048-0.019c1.965,0.38,3.775,0.303,5.201-0.045
			c1.679-0.385,2.858-1.069,3.599-1.578c0.746-0.512,1.065-0.88,1.065-0.88s-0.404,0.259-1.214,0.575
			c-0.805,0.316-2.035,0.662-3.59,0.715c-0.738,0.014-1.552-0.047-2.408-0.203c0.182-0.138,0.28-0.228,0.28-0.228
			s-0.146,0.085-0.433,0.204c-0.895-0.175-1.837-0.461-2.795-0.895c-1.929-0.884-3.938-2.261-5.851-4.137
			c-0.959-0.935-1.885-1.995-2.831-3.104c-0.455-0.577-0.927-1.151-1.373-1.767c-0.461-0.635-0.93-1.281-1.404-1.934
			c-0.457-0.653-0.997-1.344-1.563-2.05c-0.573-0.688-1.15-1.351-1.784-2.01c-1.238-1.328-2.643-2.598-4.254-3.704
			c-0.074-0.053-0.155-0.099-0.23-0.151c0.509,0.243,0.816,0.393,0.816,0.393s-5.072-6.044-16.188-8.225
			c-6.355-1.246-12.362-0.645-17.819-1.807c4.609-0.311,7.203-1.368,13.189-1.189c10.033,0.302,19.648,4.836,19.648,4.836
			s-6.016-6.063-16.336-8.519c-6.776-1.613-14.037,0.699-22.858-1.673c-1.061-0.286-2.06-0.612-3.025-0.959
			c12.374,2.921,19.828-3.994,19.828-3.994s-11.674,4.574-21.853-0.061c-3.011-1.371-5.349-3.169-7.334-5.174
			c1.859,1.242,3.746,2.309,5.679,3.079c10.876,4.343,19.049-0.567,19.049-0.567c-8.861,0.027-15.182-2.529-21.072-6.662l0.17,0.081
			c0.466,0.22,0.926,0.437,1.378,0.649c0.909,0.411,1.855,0.66,2.718,0.97c0.905,0.201,1.759,0.441,2.594,0.538
			c0.843,0.069,1.627,0.184,2.379,0.133c1.493,0.035,2.776-0.288,3.791-0.549c1.013-0.329,1.764-0.685,2.245-0.981
			c0.49-0.28,0.719-0.474,0.719-0.474s-0.266,0.136-0.793,0.297c-0.517,0.184-1.313,0.32-2.304,0.46
			c-1.004,0.061-2.216,0.119-3.582-0.117c-1.366-0.169-2.855-0.659-4.429-1.254c-1.546-0.704-3.168-1.575-4.779-2.701
			c-1.612-1.108-3.206-2.486-4.778-3.941c-0.758-0.771-1.538-1.494-2.307-2.326c-0.112-0.129-0.232-0.257-0.343-0.387
			c0.935,0.025,1.819-0.02,2.622-0.18c1.324-0.178,2.417-0.643,3.269-1.034c1.7-0.87,2.388-1.72,2.388-1.72s-0.237,0.117-0.692,0.27
			c-0.443,0.176-1.136,0.319-1.981,0.472c-0.859,0.103-1.892,0.176-3.051,0.047c-1.157-0.076-4.007-0.545-6.525-2.223
			c-1.776-1.183-2.453-1.986-3.649-3.626c0.792,0.452,1.574,0.868,2.339,1.223c5.779,2.678,11.04-1.626,11.04-1.626
			s-5.212,1.371-9.016-0.314c-2.773-1.23-8.916-5.984-13.327-8.126c5.178-0.721,8.888-2.795,8.888-2.795
			c0-0.001-5.631,1.096-11.173,0c-2.538-0.502-6.575-2.295-8.757-3.624c-4.4-2.678-10.98-1.478-15.213-0.238
			c-0.009-2.48-0.494-4.891-0.983-6.883c-0.44-1.796-1.018-2.871-1.066-4.672c-0.049-1.799-0.75-5.106-2.308-3.503
			c0,0-3.262,3.136-4.344,6.752c-0.973,3.249-0.829,6.246-1.269,8.449c-0.129,0.011-0.258,0.022-0.387,0.034
			c-1.583-1.763-3.325-3.322-4.878-4.633c-1.818-1.535-3.23-2.285-4.645-4.037c-1.415-1.752-4.646-4.638-5.049-2.214
			c0,0-1.009,4.856,0.608,9.009c0.624,1.605,1.43,3.05,2.242,4.372c-0.286,0.139-0.664,0.336-1.11,0.599
			c-0.837-0.543-1.642-1.009-2.306-1.296c-0.322-0.719-0.753-1.362-1.211-1.731c-1.239-1-3.133-2.435-4.592-3.26
			c-0.272-0.739-0.683-1.426-1.139-1.789c-1.307-1.039-3.467-2.643-4.741-3.133c-0.235-0.787-0.675-1.573-1.156-1.96
			c-1.091-0.879-2.852-2.207-3.979-2.724c-0.172-0.747-0.585-1.546-1.044-1.917c-1.073-0.865-2.907-2.24-3.785-2.464
			c-0.12-0.702-0.53-1.528-0.977-1.892c-0.782-0.639-2.031-1.596-2.86-2.01c-0.164-0.57-0.499-1.178-0.853-1.471
			c-0.877-0.728-2.4-1.908-3.036-2.04c-0.123-0.52-0.464-1.15-0.803-1.44c-0.68-0.578-1.821-1.494-2.387-1.72
			c-0.077-0.437-0.361-0.993-0.653-1.24c-0.552-0.465-1.481-1.201-1.946-1.381c-0.095-0.362-0.325-0.794-0.562-0.998
			c-0.497-0.427-1.346-1.115-1.721-1.244c-0.014-0.133-0.047-0.263-0.118-0.373c-0.2-0.308-0.838-0.925-1.734-1.64
			c-0.94-0.751-1.543-1.111-1.674-1.036c-0.132,0.076,0.172,0.684,0.389,1.042c0.19,0.313,0.644,1.007,0.929,1.437
			c0.284,0.43,0.769,1.09,1.079,1.263c0.075,0.041,0.147,0.078,0.22,0.105c0.004,0.145,0.039,0.308,0.132,0.494
			c0.396,0.794,0.914,1.52,1.44,1.946c0.177,0.144,0.331,0.214,0.475,0.253c0.022,0.091,0.051,0.185,0.099,0.286
			c0.436,0.92,1.02,1.756,1.628,2.237c0.243,0.192,0.459,0.28,0.653,0.306c0.029,0.123,0.074,0.253,0.141,0.39
			c0.549,1.129,1.275,2.156,2.022,2.755c0.26,0.209,0.489,0.308,0.701,0.358c0.021,0.185,0.064,0.379,0.161,0.592
			c0.619,1.366,1.465,2.598,2.369,3.298c0.28,0.217,0.539,0.344,0.779,0.406c0.651,1.481,1.553,2.808,2.535,3.554
			c0.426,0.324,0.812,0.463,1.163,0.475c0.031,0.148,0.06,0.295,0.126,0.453c0.729,1.741,1.767,3.295,2.917,4.156
			c0.353,0.265,0.684,0.414,0.995,0.483c0.016,0.043,0.025,0.083,0.043,0.126c0.856,2.047,2.079,3.875,3.431,4.889
			c0.495,0.371,0.952,0.548,1.377,0.599c0.935,2.28,2.277,4.3,3.788,5.413c0.421,0.311,0.819,0.492,1.2,0.59
			c1.089,2.266,2.507,4.236,4.058,5.397c0.648,0.486,1.248,0.722,1.807,0.792c0.091,0.216,0.186,0.435,0.285,0.656
			c-0.151,0.229-0.304,0.455-0.449,0.696c-2.849,4.745-5.29,6.187-6.076,7.239c-0.787,1.054-0.584,2.451-1.796,3.902
			c0,0-2.826,4.725-5.449,7.234c-2.625,2.51-6.057,5.051-7.874,7.529c-1.817,2.479-4.843,7.412-6.257,8.872
			c-1.414,1.46-3.432,2.34-3.634,3.753c-0.202,1.413-0.202,2.617,0.808,3.582c1.01,0.965,3.232,2.285,3.03,3.497
			c-0.201,1.212,0.404,4.4,1.415,5.766c1.009,1.367,2.827,2.099,4.039,1.852c1.211-0.247,3.23-1.729,3.23-1.729
			s-1.009,2.648,0.001,3.613c1.011,0.964,2.828,0.494,4.443,0.833c1.616,0.34,4.644-0.38,5.452-1.415
			c0.808-1.034,0.807-3.241,2.22-4.1c1.413-0.857,3.835-4.162,7.066-5.29c3.23-1.128,11.307-2.843,16.758-4.659
			c5.451-1.816,7.469-5.908,7.469-5.908s0.052,0.11,0.135,0.29c0.308-0.44,0.606-0.888,0.875-1.355
			c0.376-0.664,0.8-1.455,1.08-2.167c0.313-0.739,0.605-1.476,0.824-2.21c0.46-1.462,0.742-2.876,0.901-4.104
			c0.148-1.229,0.2-2.272,0.176-3.002c-0.013-0.731-0.057-1.152-0.057-1.152s0.149,0.397,0.292,1.127
			c0.128,0.728,0.302,1.788,0.284,3.072c-0.008,0.641-0.038,1.338-0.138,2.069c-0.092,0.731-0.217,1.504-0.432,2.282
			c-0.094,0.393-0.209,0.787-0.341,1.181c-0.116,0.4-0.267,0.793-0.43,1.185c-0.319,0.829-0.678,1.527-1.116,2.328
			c-0.414,0.693-0.877,1.351-1.362,1.974c1.104,2.477,3.221,7.476,3.957,10.95c1.011,4.779,2.426,16.768,3.842,22.534
			c1.415,5.766,3.392,18.874,3.19,21.09s-0.895,11.463-1.5,15.5c-0.605,4.038,0,9.5,0,9.5s-5.314,2.423-10.159,3.212
			c-4.846,0.788-8.277,3.128-11.105,2.836c-2.828-0.292-5.048,0.396-5.654,2.225c-0.605,1.83,0.405,5.003,0.405,7.411
			c0.001,2.409-0.2,5.628,1.012,7.589c1.212,1.96,4.241,5.858,4.848,9.648c0.606,3.79,4.042,13.091,4.85,15.269
			c0,0-1.614,2.069-3.836,3.56c-2.22,1.49-2.422,2.702-2.22,5.103c0.202,2.401,1.415,6.369,3.232,8.106
			c1.818,1.736,8.684,8.497,12.118,13.985c3.434,5.489,5.655,6.005,5.858,8.406c0.202,2.401-0.201,4.824,1.819,6.352
			c2.02,1.528,4.24,2.648,5.048,5.427c0.808,2.778,3.434,6.291,6.261,6.985c2.827,0.693,7.673-1.5,11.105-0.026
			c3.433,1.474,6.26,2.971,8.078,1.697c1.816-1.274,2.219-4.903,1.411-8.084c-0.809-3.18-2.223-10.352-5.051-11.849
			c-2.828-1.497-3.433-2.878-6.26-1.364c-2.827,1.514-6.461,2.255-8.278,1.924c-1.817-0.331-1.212-1.559-3.03-4.098
			c-0.166-0.232-0.328-0.429-0.487-0.611c4.831,0.618,7.924-3.662,7.924-3.662s-3.482,1.796-7.056,1.663
			c3.465-1.575,4.788-5.173,4.788-5.173s-2.393,4.011-7.238,3.723c-0.248-0.015-0.469-0.042-0.7-0.064
			c3.399-1.772,4.565-5.939,4.565-5.939s-1.5,2.5-5,3.75c-1.345,0.48-2.724,0.617-3.5-0.25s-3.59-6.37-5.212-9.036
			c-2.626-4.315-2.628-7.125-2.628-7.125s4.646,2.028,6.463,4.166c1.818,2.138,8.684,3.681,10.904,3.193
			c2.221-0.487,3.029-1.321,3.229-3.737c0.201-2.416-0.203-5.411-1.213-7.781c-1.011-2.37-2.02-5.341-4.242-5.256
			c-2.221,0.086-5.451,0.41-5.451,0.41s2.624-3.111,6.057-4.849c3.433-1.738,11.508-3.253,16.96-5.872
			c5.451-2.619,8.883-6.966,8.883-6.966s11.513,12.805,21.004,19.465c8.236,5.779,25.13,8.977,29.11,9.839
			c3.979,0.862,14.179,2.417,14.179,2.417s-2.544,9.798-4.244,17.643c-0.58,2.675-0.822,4.337-0.3,7.488
			c0.564,3.405,2.472,8.348,4.061,10.915c3.061,4.944,7.996,12.559,11.044,16.871c3.049,4.312,14.271,18.435,14.758,20.103
			c0.486,1.669-0.546,7.606-0.927,11.833c-0.379,4.229-0.956,10.148-2.938,14.225c-1.98,4.077-3.486,9.19-7.316,12.069
			c-3.831,2.88-8.82,4.751-11.254,9.054c-2.435,4.303-4.911,6.29-2.833,7.479c2.078,1.186,6.194,1.457,6.194,1.457
			s-5.6,6.104-3.29,7.494c2.31,1.392,10.55,2.351,13.297,2.672c2.747,0.321,7.06-1.105,8.159-3.461
			c1.099-2.359,1.671-8.49,1.645-9.964c-0.026-1.419,0.826-1.315,1.69-2.089c1.439,3.734,4.13,7.822,6.784,10.015
			c0,0-4.97-7.608-4.279-12.637c0.073,0.103,0.147,0.207,0.21,0.308c0.279,0.566,0.721,1.079,0.965,1.642
			c0.209,0.563,0.587,1.107,0.704,1.634c0.167,0.524,0.358,1.03,0.417,1.496c0.112,0.475,0.148,0.901,0.164,1.288
			c0.047,0.396-0.016,0.714-0.026,0.999c-0.004,0.289-0.092,0.484-0.117,0.642c-0.038,0.149-0.057,0.231-0.057,0.231
			s0.067-0.061,0.188-0.17c0.105-0.117,0.358-0.264,0.497-0.523c0.154-0.251,0.418-0.551,0.53-0.947
			c0.074-0.197,0.153-0.407,0.236-0.626c0.071-0.224,0.079-0.473,0.122-0.725c0.11-0.512,0.088-1.081,0.015-1.694
			c-0.005-0.612-0.253-1.248-0.441-1.918c-0.217-0.662-0.596-1.36-0.963-2.057c-0.361-0.604-0.77-1.13-1.166-1.688
			c0.475,0.483,0.966,0.959,1.385,1.457c0.461,0.646,1.101,1.229,1.461,1.874c0.386,0.635,0.864,1.235,1.131,1.843
			c0.159,0.302,0.316,0.597,0.466,0.88c0.118,0.29,0.235,0.571,0.345,0.84c0.248,0.543,0.374,1.044,0.521,1.497
			c0.162,0.464,0.182,0.832,0.27,1.172c0.078,0.334,0.062,0.607,0.087,0.788c0.017,0.183,0.023,0.279,0.023,0.279
			s0.046-0.084,0.132-0.241c0.066-0.166,0.257-0.372,0.329-0.703c0.071-0.32,0.261-0.735,0.263-1.209
			c0.039-0.473,0.114-1.02,0.009-1.621c-0.032-0.301-0.067-0.617-0.102-0.945c-0.094-0.324-0.191-0.662-0.29-1.009
			c-0.165-0.703-0.521-1.42-0.897-2.165c-0.166-0.378-0.403-0.743-0.66-1.109c-0.245-0.368-0.499-0.743-0.769-1.115
			c-0.551-0.739-1.273-1.415-1.925-2.126l-0.899-0.929c-0.328-0.334-0.445-0.569-0.694-0.854c-0.211-0.282-0.378-0.614-0.59-0.913
			c-0.017-0.032-0.031-0.064-0.047-0.097c1.829,2.448,4.427,3.718,6.045,4.071c0,0-3.402-2.902-4.098-5.003
			c-0.209-0.633-0.197-1.636,0.097-2.044c0.294-0.408,1.18-1.353,2-2.209c3.137-3.276,7.13-9.679,10.531-11.067
			c3.401-1.392,7.905-4.929,9.235-7.084c1.332-2.156,0.534-4.24,0.79-6.77c0.194-1.904,1.066-4.044-1.269-6.907
			c-0.851-1.043-1.999-2.298-2.755-3.507c-0.757-1.209-3.405-5.081-4.775-8.646c-2.159-5.609-4.741-9.304-3.899-13.34
			c0.84-4.035,2.768-11.06,5.482-12.423c2.716-1.364,13.585-6.611,18.982-11.233c5.397-4.624,17.545-14.763,20.181-20.551
			c2.634-5.784,3.592-15.933,2.756-24.121c-0.154-1.512-0.628-3.394-1.336-5.489c0.81-0.188,1.677-0.347,2.598-0.455
			c5.242-0.615,7.597,3.3,8.65,10.847c1.049,7.546-0.135,17.704-5.018,25.468c-2.073,3.296-3.969,7.97-3.893,11.943
			c0.102,5.388,2.794,10.055,3.903,13.551c0.849,2.674,2.835,5.163,2.923,10.006c0.088,4.844-1.819,12.92-1.819,12.92
			s4.025-4.981,4.564-12.372c0.191-2.609-0.054-5.521-1.066-8.617c-1.249-3.832-0.882-9.536-0.233-12.843
			c1.08-5.513,4.16-9.846,4.16-9.846c0.001-0.001-0.313,6.07,1.156,13.23c0.859,4.197,2.738,9.45,4.562,12.263
			c3.229,4.98,4.781,11.722,3.565,20.095c-0.642,4.43-2.663,9.022-4.299,14.696c-4.726,16.397,12.8,25.444,12.8,25.444
			c-1.996-3.491-2.118-9.888-0.076-16.643c1.336-4.422,3.935-8.668,6.376-13.508c6.172-12.237,1.431-21.754,1.431-21.754
			c9.341,11.244,24.333,6.686,24.333,6.686s-6.373,1.289-14.019-4.749c-3.825-3.02-7.26-9.741-8.073-16.77
			c-0.813-7.027,0.494-10.003,2.187-17.778c1.897-8.708-0.883-23.354-0.883-23.354s6.145,23.792,18.535,26.917
			c12.392,3.127,14.558-3.274,14.558-3.274S440.867,322.745,433.234,317.549z M179.667,232c0,0,0.07,0.254,0.193,0.7
			c0.112,0.445,0.271,1.082,0.462,1.846c0.183,0.764,0.373,1.658,0.583,2.613c0.199,0.956,0.411,1.975,0.624,2.994
			c0.101,0.51,0.18,1.026,0.302,1.521c0.119,0.496,0.206,0.992,0.307,1.468c0.096,0.478,0.181,0.941,0.296,1.369
			c0.108,0.43,0.199,0.842,0.281,1.224c0.079,0.385,0.157,0.733,0.262,1.027c0.094,0.303,0.175,0.566,0.243,0.784
			c0.132,0.439,0.198,0.703,0.198,0.703s-0.144-0.216-0.378-0.615c-0.116-0.202-0.257-0.447-0.419-0.728
			c-0.178-0.28-0.335-0.61-0.467-0.983c-0.279-0.738-0.659-1.602-0.896-2.559c-0.271-0.951-0.54-1.974-0.739-3.006
			c-0.202-1.033-0.391-2.067-0.506-3.046c-0.138-0.975-0.221-1.892-0.273-2.679c-0.066-0.785-0.055-1.449-0.077-1.907
			C179.654,232.265,179.667,232,179.667,232z M170.574,273.697c-0.578,0.679-1.406,1.524-2.287,2.313
			c-0.886,0.785-1.824,1.513-2.571,2.014c-0.741,0.507-1.294,0.783-1.294,0.783s0.33-0.511,0.914-1.184
			c0.578-0.679,1.406-1.524,2.287-2.314c0.885-0.784,1.823-1.514,2.57-2.015c0.741-0.507,1.295-0.782,1.295-0.782
			S171.158,273.024,170.574,273.697z M182.455,285.812c-0.393,0.344-0.858,0.725-1.367,1.112c-0.268,0.176-0.479,0.441-0.738,0.652
			c-0.25,0.223-0.504,0.449-0.758,0.675c-0.526,0.429-1.048,0.868-1.517,1.333c-0.477,0.448-0.936,0.852-1.343,1.186
			c-0.806,0.675-1.404,1.065-1.404,1.065s0.366-0.615,1.008-1.45c0.317-0.42,0.702-0.897,1.129-1.392
			c0.224-0.24,0.417-0.516,0.681-0.747c0.262-0.233,0.528-0.471,0.794-0.708c0.273-0.229,0.547-0.458,0.817-0.683
			c0.272-0.221,0.531-0.451,0.824-0.615c0.571-0.35,1.113-0.657,1.583-0.902c0.958-0.441,1.643-0.654,1.643-0.654
			S183.29,285.177,182.455,285.812z M180.169,267.763c-4.442,2.179-7.875,4.317-7.875,4.317s-1.616-5.156-2.626-7.125
			c-1.01-1.967-4.443-8.861-3.232-9.912c1.211-1.051,0.807-3.243,1.413-5.073c0.605-1.829,3.835-0.548,7.47-0.487
			c3.636,0.061,8.885,0.259,8.885,0.259c1.964,3.756,6.464,10.506,6.464,10.506S184.611,265.585,180.169,267.763z M298.93,205.415
			c-1.245,0.42-4.198,1.296-7.926,1.641c-0.144-0.267-0.285-0.533-0.445-0.809c-0.494-0.849-1.048-1.755-1.675-2.685
			C292.293,203.817,295.878,204.589,298.93,205.415z M285.164,203.522c1.337,1.247,2.529,2.483,3.543,3.662
			c-3.307,0.074-6.997-0.369-10.538-1.885c0.808-0.194,1.59-0.426,2.304-0.746C281.822,203.948,283.427,203.633,285.164,203.522z
			 M277.462,179.905c0.539,0.616,1.073,1.227,1.597,1.829c0.542,0.615,1.112,1.197,1.661,1.772c1.127,1.131,2.28,2.162,3.476,3.05
			c1.92,1.448,3.903,2.556,5.844,3.247c-0.479-0.008-0.977-0.036-1.506-0.118c-1.395-0.143-2.925-0.629-4.543-1.23
			c-1.593-0.718-3.267-1.614-4.936-2.786c-1.67-1.154-3.329-2.601-4.968-4.13c-0.792-0.814-1.605-1.574-2.41-2.452
			c-0.793-0.93-1.607-1.858-2.441-2.78c-0.858-0.931-1.726-1.867-2.596-2.807c-0.68-0.796-1.458-1.478-2.243-2.15
			c2.178,0.318,4.186,1.06,6.058,2.239C273.114,175.257,275.384,177.55,277.462,179.905z M258.527,164.024
			c2.151,0.319,5.028,1.3,7.697,2.355c-1.531-0.351-3.098-0.525-4.629-0.497c-1.615,0.001-3.169,0.129-4.678,0.288
			c-1.892-1.029-3.845-1.802-5.754-2.488C254.031,163.71,256.635,163.743,258.527,164.024z M255.173,182.045
			c-2.356-3.525-5.905-7.089-9.695-10.337c0.621,0.091,1.247,0.167,1.877,0.219c3.576,2.865,6.81,6.475,10.086,9.994
			C256.683,181.958,255.926,182,255.173,182.045z M265.317,190.271c-0.813-0.061-1.627-0.096-2.44-0.118
			c-0.915-1.271-1.866-2.503-2.898-3.664c0.467-0.101,0.918-0.191,1.348-0.266c0.081-0.014,0.18-0.017,0.262-0.03
			c1.572,1.525,3.191,2.948,4.892,4.189C266.094,190.345,265.708,190.297,265.317,190.271z M265.707,181.929
			c-2.559-3.018-5.379-6.447-9.36-10.352c0.701-0.076,1.378-0.144,2.054-0.208c0.159,0.111,0.317,0.224,0.478,0.331
			c0.479,0.344,0.981,0.652,1.441,1.027l1.351,1.172c0.912,0.766,1.852,1.496,2.648,2.406l1.247,1.294l0.621,0.645l0.669,0.712
			c0.837,0.917,1.68,1.814,2.524,2.688c0.313,0.309,0.645,0.609,0.974,0.911C268.826,182.238,267.272,182.043,265.707,181.929z
			 M269.21,195.964c1.347,0.146,2.553,0.267,3.719,0.574c2.191,0.52,4.255,1.397,6.143,2.468c-3.914-0.554-7.898-1.507-11.472-3.163
			C268.143,195.876,268.685,195.911,269.21,195.964z M315.669,382.071c-0.024,0.384-0.099,0.848-0.169,1.245l-0.135,0.594
			l-0.175,0.572c-0.478,1.491-1.012,2.905-1.546,4.34c-1.066,2.858-2.243,5.668-3.434,8.474c-1.202,2.801-2.435,5.587-3.837,8.323
			c-0.702,1.442-1.636,2.62-2.321,3.932c-0.714,1.309-1.312,2.701-1.98,4.072c-0.657,1.375-1.358,2.754-2.229,4.043
			c-0.442,0.623-0.961,1.279-1.504,1.786c-0.597,0.521-1.153,1.031-1.768,1.493c-2.406,1.885-4.946,3.563-7.534,5.158
			c2.473-1.765,4.909-3.59,7.208-5.552c0.58-0.479,1.119-1.025,1.645-1.525c0.541-0.561,0.935-1.128,1.345-1.759
			c0.772-1.27,1.391-2.639,1.978-4.033c0.586-1.396,1.174-2.804,1.868-4.19c0.686-1.403,1.612-2.658,2.196-3.978
			c1.292-2.712,2.441-5.522,3.553-8.338c1.116-2.816,2.158-5.664,3.215-8.5c0.513-1.417,1.038-2.851,1.473-4.259l0.153-0.518
			l0.112-0.52c0.053-0.351,0.101-0.638,0.123-1.012c0.063-0.709,0.061-1.444,0.043-2.18c-0.101-2.953-0.553-5.943-1.078-8.906
			l-0.102-0.557c-0.014-0.084-0.079-0.375-0.119-0.479c-0.065-0.224-0.226-0.572-0.371-0.86c-0.319-0.605-0.723-1.206-1.153-1.795
			c-0.867-1.178-1.849-2.315-2.846-3.441c-2.012-2.246-4.084-4.484-6.035-6.867c-0.967-1.17-1.941-2.461-2.771-3.711l-2.569-3.773
			l-2.597-3.725l-2.683-3.656c-1.825-2.424-3.652-4.915-5.255-7.548c-1.567-2.65-3.003-5.475-3.581-8.639
			c-0.075-0.394-0.13-0.792-0.151-1.198c-0.046-0.401-0.046-0.809-0.03-1.218c0.022-0.85,0.13-1.53,0.236-2.328
			c0.214-1.537,0.478-3.028,0.752-4.53c0.555-2.996,1.136-5.98,1.788-8.951l0.953-4.457c0.291-1.442,0.636-2.907,0.822-4.335
			c-0.79-0.207-1.578-0.415-2.36-0.649c-0.832-0.23-1.649-0.516-2.467-0.785c1.083,0,2.073,0.238,2.917,0.417
			c0.838,0.197,1.917,0.333,2.5,0.5c0.083,0.417-0.635,3.44-0.85,4.953l-0.7,4.506l-1.41,8.997c-0.22,1.495-0.432,3.006-0.586,4.485
			c-0.074,0.709-0.158,1.541-0.154,2.21c-0.006,0.351,0,0.703,0.051,1.057c0.024,0.353,0.082,0.706,0.158,1.058
			c0.572,2.828,1.997,5.495,3.55,8.028c1.579,2.547,3.366,4.952,5.215,7.366l2.745,3.667l2.652,3.727l2.597,3.737
			c0.865,1.273,1.739,2.398,2.717,3.562c1.928,2.297,4.015,4.493,6.014,6.812c1.003,1.158,1.999,2.334,2.921,3.613
			c0.458,0.642,0.9,1.309,1.283,2.052c0.188,0.394,0.358,0.733,0.504,1.24c0.074,0.257,0.09,0.339,0.146,0.627l0.099,0.566
			c0.509,3.021,0.951,6.059,1.034,9.184C315.749,380.479,315.745,381.267,315.669,382.071z M384.721,254.066
			c0.626-0.122,1.303-0.285,2.03-0.377c0.726-0.102,1.493-0.224,2.296-0.26c0.8-0.07,1.631-0.099,2.478-0.083
			c0.846-0.02,1.705,0.097,2.564,0.141c0.854,0.123,1.709,0.258,2.542,0.431c0.414,0.104,0.823,0.215,1.224,0.331
			c0.403,0.11,0.801,0.218,1.175,0.384c0.75,0.319,1.506,0.544,2.14,0.952c0.641,0.383,1.283,0.676,1.784,1.095
			c0.514,0.398,0.972,0.774,1.374,1.105c0.386,0.352,0.665,0.722,0.918,0.995c0.48,0.566,0.754,0.889,0.754,0.889
			s-0.343-0.249-0.944-0.685c-0.3-0.212-0.637-0.5-1.059-0.776c-0.444-0.25-0.941-0.529-1.468-0.845
			c-0.256-0.171-0.556-0.293-0.864-0.418c-0.303-0.133-0.617-0.272-0.939-0.414c-0.315-0.154-0.651-0.285-1.011-0.379
			c-0.351-0.114-0.708-0.23-1.073-0.348c-0.719-0.262-1.521-0.346-2.292-0.563c-0.791-0.148-1.605-0.257-2.417-0.363
			c-0.82-0.056-1.634-0.186-2.447-0.181c-0.811-0.02-1.611-0.07-2.387-0.038c-0.777,0.001-1.528,0.035-2.242,0.067
			c-0.714,0.032-1.388,0.099-2.015,0.132c-0.624,0.062-1.197,0.119-1.705,0.169c-0.509,0.06-0.953,0.112-1.318,0.155
			c-0.733,0.098-1.153,0.153-1.153,0.153S382.225,254.629,384.721,254.066z M391.204,287.918c-0.031,0.747-0.088,1.473-0.176,2.225
			c-0.094,0.7-0.2,1.43-0.325,2.145c-0.243,1.421-0.539,2.809-0.903,4.126c-0.695,2.646-1.564,5.028-2.268,7.05
			c-0.707,2.023-1.2,3.714-1.309,4.945c-0.054,0.612-0.05,1.104-0.012,1.437c0.036,0.333,0.071,0.513,0.071,0.513
			s-0.074-0.164-0.187-0.487c-0.112-0.323-0.244-0.816-0.3-1.462c-0.143-1.294,0.086-3.156,0.563-5.274
			c0.463-2.128,1.111-4.547,1.669-7.146c0.267-1.303,0.53-2.646,0.745-4.017c0.107-0.681,0.194-1.365,0.278-2.085
			c0.072-0.671,0.151-1.376,0.186-2.066c0.148-2.769-0.088-5.554-0.851-8.012c-0.723-2.471-1.985-4.576-3.366-6.132
			c-1.382-1.564-2.837-2.611-3.896-3.266c-1.059-0.659-1.718-0.974-1.718-0.974s0.173,0.052,0.497,0.149
			c0.321,0.098,0.804,0.247,1.39,0.495c0.588,0.244,1.3,0.565,2.066,1.032c0.765,0.465,1.613,1.041,2.433,1.801
			c0.82,0.756,1.657,1.655,2.368,2.735c0.718,1.072,1.36,2.289,1.843,3.616c0.485,1.326,0.818,2.75,1.028,4.209
			C391.232,284.935,391.26,286.433,391.204,287.918z M389.99,265.256c-1.093-0.808-2.345-1.347-3.602-1.759
			c-1.261-0.413-2.556-0.6-3.793-0.73c-1.241-0.124-2.433-0.114-3.538-0.087c-2.211,0.087-4.063,0.368-5.357,0.585
			c-1.294,0.227-2.032,0.403-2.032,0.403s0.67-0.359,1.917-0.826c1.244-0.469,3.07-1.045,5.353-1.399
			c1.141-0.186,2.398-0.275,3.739-0.267c1.342,0.002,2.77,0.172,4.219,0.549c1.45,0.366,2.912,1.002,4.227,1.925
			c1.358,0.951,2.37,2.039,3.418,3.273c0.997,1.213,1.892,2.521,2.578,3.908c0.693,1.382,1.228,2.809,1.617,4.217
			c0.753,2.831,0.911,5.56,0.78,7.853c-0.129,2.299-0.519,4.172-0.866,5.453c-0.354,1.282-0.649,1.98-0.649,1.98
			s0.154-0.742,0.291-2.047c0.14-1.303,0.264-3.173,0.154-5.39c-0.114-2.212-0.462-4.783-1.331-7.364
			c-0.832-2.588-2.219-5.163-4.082-7.351C392.124,267.141,391.046,266.026,389.99,265.256z M405.047,365.901
			c-0.185,1.31-0.446,2.425-0.698,3.332c-0.26,0.91-0.504,1.6-0.689,2.065c-0.175,0.469-0.269,0.719-0.269,0.719
			s0.057-0.261,0.164-0.749c0.122-0.486,0.253-1.211,0.396-2.122c0.145-0.913,0.254-2.032,0.306-3.309
			c0.038-1.278-0.031-2.717-0.251-4.259c-0.421-3.095-1.645-6.54-3.428-10.04c-0.889-1.756-1.868-3.553-2.868-5.412
			c-1.003-1.855-1.975-3.804-2.744-5.882c-0.764-2.059-1.319-4.326-1.388-6.515c-0.108-2.123-0.113-4.258,0.054-6.29
			c0.174-2.038,0.476-3.995,0.879-5.818c0.425-1.818,0.905-3.507,1.405-5.034c0.493-1.515,0.944-2.903,1.344-4.133
			c0.378-1.228,0.631-2.312,0.794-3.218c0.153-0.907,0.212-1.634,0.24-2.132c0.011-0.5,0.016-0.767,0.016-0.767
			s0.046,0.264,0.134,0.759c0.072,0.498,0.16,1.238,0.145,2.188c-0.002,0.95-0.114,2.104-0.332,3.403
			c-0.204,1.303-0.55,2.738-0.88,4.296c-0.696,3.105-1.392,6.698-1.544,10.597c-0.099,1.953-0.086,3.952,0.056,6.013
			c0.094,2.007,0.513,3.937,1.21,5.875c1.406,3.847,3.564,7.55,5.211,11.251c0.816,1.856,1.514,3.711,2.018,5.521
			c0.491,1.815,0.776,3.581,0.877,5.216C405.303,363.093,405.21,364.593,405.047,365.901z M405.234,340.867
			c-0.28-0.573-0.613-1.184-0.892-1.862c-0.287-0.675-0.605-1.384-0.848-2.149c-0.275-0.754-0.519-1.549-0.724-2.371
			c-0.238-0.811-0.35-1.671-0.531-2.513c-0.103-0.857-0.195-1.718-0.244-2.566c-0.007-0.427-0.006-0.851,0.001-1.268
			c0.001-0.418,0.002-0.83,0.065-1.235c0.114-0.807,0.134-1.596,0.363-2.314c0.203-0.719,0.32-1.414,0.595-2.007
			c0.251-0.6,0.495-1.139,0.71-1.613c0.24-0.464,0.524-0.83,0.722-1.145c0.421-0.61,0.662-0.96,0.662-0.96s-0.151,0.396-0.416,1.089
			c-0.127,0.345-0.317,0.745-0.475,1.224c-0.126,0.494-0.266,1.046-0.434,1.637c-0.099,0.292-0.138,0.613-0.18,0.943
			c-0.05,0.327-0.102,0.666-0.155,1.014c-0.067,0.344-0.106,0.702-0.104,1.074c-0.018,0.368-0.038,0.744-0.057,1.126
			c-0.066,0.762,0.061,1.558,0.052,2.36c0.062,0.802,0.168,1.617,0.277,2.428c0.16,0.806,0.246,1.626,0.461,2.411
			c0.191,0.789,0.351,1.574,0.584,2.315c0.202,0.75,0.43,1.466,0.647,2.148c0.216,0.682,0.456,1.314,0.651,1.911
			c0.222,0.587,0.425,1.126,0.606,1.603c0.19,0.476,0.355,0.891,0.492,1.233c0.285,0.683,0.448,1.073,0.448,1.073
			S406.427,343.132,405.234,340.867z M409.921,311.107c-0.188-0.347-0.394-0.881-0.658-1.568c-0.228-0.694-0.519-1.539-0.753-2.533
			c-0.256-0.988-0.501-2.117-0.694-3.358c-0.218-1.237-0.374-2.596-0.511-4.04c-0.047-0.711-0.096-1.441-0.145-2.188l-0.037-0.563
			l-0.005-0.6c0-0.392,0-0.787-0.001-1.186c0.05-1.582,0.131-3.204,0.283-4.828c0.136-1.621,0.286-3.277,0.357-4.885
			c0.062-0.794,0.08-1.625,0.098-2.452c0.011-0.777-0.01-1.586-0.07-2.366c-0.124-1.568-0.333-3.107-0.696-4.564
			c-0.361-1.456-0.811-2.844-1.353-4.118c-0.545-1.271-1.143-2.444-1.765-3.491c-1.249-2.093-2.552-3.69-3.524-4.753
			c-0.973-1.066-1.612-1.604-1.612-1.604s0.736,0.398,1.883,1.314c1.141,0.915,2.701,2.354,4.207,4.407
			c1.512,2.036,2.976,4.696,3.863,7.79c0.439,1.544,0.783,3.18,0.92,4.863c0.076,0.845,0.111,1.682,0.11,2.555
			c-0.006,0.823-0.012,1.649-0.064,2.509c-0.206,3.381-0.658,6.65-0.88,9.695c-0.016,0.377-0.031,0.752-0.046,1.123l-0.021,0.539
			l-0.003,0.564c-0.003,0.748-0.007,1.479-0.01,2.192c0.05,1.397,0.069,2.725,0.159,3.956c0.025,0.617,0.092,1.202,0.142,1.761
			c0.046,0.56,0.09,1.092,0.164,1.587c0.117,0.997,0.265,1.857,0.386,2.57c0.164,0.699,0.251,1.267,0.376,1.633
			c0.107,0.375,0.164,0.575,0.164,0.575S410.094,311.456,409.921,311.107z"/>
	</g>
	<g>
		<path d="M277.947,115.5c-8.074,0.666-8.613,1.206-9.28,9.28c-0.665-8.074-1.206-8.614-9.279-9.28
			c8.074-0.666,8.614-1.206,9.279-9.28C269.334,114.294,269.874,114.834,277.947,115.5z"/>
		<path d="M78.947,50.5c-11.989,0.989-12.79,1.791-13.78,13.78c-0.988-11.989-1.791-12.791-13.779-13.78
			c11.989-0.989,12.792-1.791,13.779-13.78C66.157,48.709,66.959,49.511,78.947,50.5z"/>
		<path d="M403.447,208.75c-6.116,0.504-6.525,0.914-7.03,7.03c-0.503-6.116-0.913-6.525-7.029-7.03
			c6.116-0.504,6.526-0.914,7.029-7.03C396.922,207.836,397.331,208.246,403.447,208.75z"/>
		<path d="M120.048,318.851c-7.857,0.648-8.381,1.173-9.03,9.03c-0.647-7.856-1.173-8.382-9.029-9.03
			c7.856-0.648,8.382-1.173,9.029-9.03C111.667,317.678,112.192,318.203,120.048,318.851z"/>
		<path d="M117.767,208.359c-28.685,0.162-28.816,0.292-28.977,28.977c-0.162-28.685-0.293-28.816-28.978-28.977
			c28.685-0.162,28.816-0.292,28.978-28.978C88.951,208.066,89.081,208.197,117.767,208.359z"/>
		<path d="M201.989,392.102c-29.42,0.165-29.554,0.3-29.72,29.72c-0.166-29.42-0.3-29.555-29.721-29.72
			c29.42-0.166,29.554-0.301,29.721-29.721C172.435,391.801,172.568,391.935,201.989,392.102z"/>
		<path d="M70.618,156c-3.513,0.794-4.156,1.437-4.951,4.95c-0.793-3.513-1.437-4.156-4.95-4.95c3.513-0.794,4.156-1.437,4.95-4.95
			C66.461,154.563,67.104,155.206,70.618,156z"/>
		<g>
			<path d="M378.819,138.101c-25.869,0.376-26.174,0.681-26.551,26.55c-0.375-25.869-0.681-26.174-26.549-26.55
				c25.868-0.376,26.174-0.681,26.549-26.55C352.645,137.42,352.95,137.725,378.819,138.101z"/>
			<path style="fill:none;stroke:#000000;stroke-width:0.2943;stroke-miterlimit:10;" d="M365.505,138.101
				c0,7.311-5.926,13.237-13.237,13.237c-7.311,0-13.236-5.926-13.236-13.237c0-7.311,5.926-13.237,13.236-13.237
				C359.58,124.864,365.505,130.79,365.505,138.101z"/>
		</g>
		<g>
			<path d="M76.487,249.227c-17.366,0.252-17.571,0.458-17.824,17.823c-0.252-17.366-0.457-17.571-17.823-17.823
				c17.366-0.253,17.571-0.458,17.823-17.823C58.916,248.769,59.121,248.974,76.487,249.227z"/>
			
				<ellipse transform="matrix(0.9239 -0.3827 0.3827 0.9239 -90.9096 41.4207)" style="fill:none;stroke:#000000;stroke-width:0.1976;stroke-miterlimit:10;" cx="58.663" cy="249.227" rx="8.886" ry="8.886"/>
		</g>
		<path d="M277.888,58.5c-22.491,0.127-22.593,0.229-22.72,22.72c-0.128-22.491-0.23-22.593-22.721-22.72
			c22.491-0.127,22.593-0.229,22.721-22.72C255.294,58.271,255.397,58.373,277.888,58.5z"/>
		<path d="M433.618,93c-3.513,0.794-4.156,1.437-4.951,4.95c-0.793-3.513-1.436-4.156-4.95-4.95c3.513-0.794,4.156-1.437,4.95-4.95
			C429.461,91.563,430.104,92.206,433.618,93z"/>
		<path d="M460.068,388.75c-4.4,0.994-5.206,1.801-6.201,6.2c-0.994-4.399-1.799-5.206-6.2-6.2c4.4-0.994,5.206-1.801,6.2-6.2
			C454.862,386.949,455.668,387.756,460.068,388.75z"/>
		<path d="M179.118,50.75c-2.626,0.593-3.107,1.074-3.701,3.7c-0.593-2.626-1.074-3.107-3.7-3.7c2.626-0.593,3.107-1.074,3.7-3.7
			C176.011,49.676,176.492,50.157,179.118,50.75z"/>
		<path d="M80.867,368.195c-2.587,0.585-3.061,1.059-3.646,3.645c-0.584-2.586-1.058-3.06-3.645-3.645
			c2.587-0.585,3.061-1.059,3.645-3.646C77.806,367.137,78.279,367.61,80.867,368.195z"/>
		<path d="M247.618,351.5c-2.449,0.554-2.897,1.002-3.451,3.45c-0.553-2.448-1.001-2.896-3.45-3.45
			c2.449-0.554,2.897-1.002,3.45-3.45C244.721,350.498,245.169,350.946,247.618,351.5z"/>
		<g>
			<path d="M445.718,181c-16.613,0.241-16.809,0.438-17.05,17.05c-0.241-16.612-0.437-16.809-17.049-17.05
				c16.612-0.242,16.809-0.438,17.049-17.05C428.909,180.563,429.105,180.758,445.718,181z"/>
			<circle style="fill:none;stroke:#000000;stroke-width:0.189;stroke-miterlimit:10;" cx="428.667" cy="181" r="8.501"/>
		</g>
		<path d="M375.635,81.12c-13.815,0-25.015-11.2-25.015-25.015c0-9.312,5.092-17.43,12.641-21.736
			c-15.31,2.144-27.094,15.286-27.094,31.187c0,17.397,14.103,31.5,31.5,31.5s31.5-14.103,31.5-31.5
			c0-0.298-0.014-0.592-0.023-0.888C395.648,74.265,386.443,81.12,375.635,81.12z"/>
		<circle cx="426.168" cy="50.75" r="1.75"/>
		<circle cx="65.918" cy="304" r="1.75"/>
		<circle cx="282.168" cy="139.75" r="1.75"/>
		<circle cx="387.418" cy="155.5" r="1.75"/>
		<circle cx="414.652" cy="43" r="0.984"/>
		<path d="M460.152,267.484c0,0.543-0.441,0.984-0.984,0.984c-0.544,0-0.984-0.441-0.984-0.984c0-0.544,0.441-0.984,0.984-0.984
			C459.711,266.5,460.152,266.941,460.152,267.484z"/>
		<path d="M300.283,106c0,0.34-0.275,0.615-0.615,0.615c-0.34,0-0.615-0.275-0.615-0.615s0.275-0.615,0.615-0.615
			C300.007,105.385,300.283,105.66,300.283,106z"/>
		<path d="M464.783,141.885c0,0.34-0.275,0.615-0.615,0.615c-0.34,0-0.615-0.275-0.615-0.615c0-0.34,0.275-0.615,0.615-0.615
			C464.507,141.27,464.783,141.545,464.783,141.885z"/>
		<path d="M445.283,230.385c0,0.34-0.275,0.615-0.615,0.615c-0.34,0-0.615-0.275-0.615-0.615c0-0.34,0.275-0.615,0.615-0.615
			C445.007,229.77,445.283,230.045,445.283,230.385z"/>
		<path d="M456.821,175.385c0,0.637-0.516,1.153-1.153,1.153c-0.637,0-1.153-0.516-1.153-1.153c0-0.637,0.516-1.153,1.153-1.153
			C456.305,174.231,456.821,174.748,456.821,175.385z"/>
		<circle cx="462.321" cy="356" r="1.153"/>
		<circle cx="214.667" cy="436" r="1.153"/>
		<path d="M78.012,414.418c0,1.341-1.086,2.425-2.425,2.425c-1.338,0-2.424-1.084-2.424-2.425c0-1.339,1.086-2.424,2.424-2.424
			C76.926,411.994,78.012,413.079,78.012,414.418z"/>
		<path d="M457.592,240.424c0,1.341-1.086,2.425-2.425,2.425c-1.338,0-2.424-1.084-2.424-2.425c0-1.339,1.086-2.424,2.424-2.424
			C456.506,238,457.592,239.085,457.592,240.424z"/>
		<path d="M84.532,419.136c0,0.753-0.611,1.364-1.364,1.364c-0.753,0-1.364-0.611-1.364-1.364c0-0.752,0.611-1.363,1.364-1.363
			C83.921,417.772,84.532,418.384,84.532,419.136z"/>
		<path d="M50.807,384.123c0,0.472-0.382,0.853-0.853,0.853c-0.47,0-0.852-0.381-0.852-0.853c0-0.471,0.382-0.852,0.852-0.852
			C50.425,383.271,50.807,383.652,50.807,384.123z"/>
		<path d="M90.135,402.987c0,0.472-0.381,0.853-0.852,0.853c-0.471,0-0.853-0.381-0.853-0.853c0-0.47,0.382-0.852,0.853-0.852
			C89.754,402.136,90.135,402.518,90.135,402.987z"/>
		<path d="M105.592,37c0,1.341-1.086,2.425-2.425,2.425c-1.338,0-2.424-1.084-2.424-2.425c0-1.339,1.086-2.424,2.424-2.424
			C104.506,34.576,105.592,35.661,105.592,37z"/>
		<path d="M79.612,84.718c0,0.753-0.611,1.364-1.364,1.364c-0.753,0-1.364-0.611-1.364-1.364c0-0.752,0.611-1.363,1.364-1.363
			C79.001,83.354,79.612,83.966,79.612,84.718z"/>
		<path d="M127.532,50c0,0.753-0.611,1.364-1.364,1.364c-0.753,0-1.364-0.611-1.364-1.364c0-0.752,0.611-1.363,1.364-1.363
			C126.921,48.636,127.532,49.248,127.532,50z"/>
		<path d="M85.215,68.569c0,0.472-0.381,0.853-0.852,0.853c-0.471,0-0.853-0.381-0.853-0.853c0-0.47,0.382-0.852,0.853-0.852
			C84.834,67.718,85.215,68.1,85.215,68.569z"/>
		<path d="M403.168,122.5c0,0.34-0.275,0.615-0.615,0.615c-0.34,0-0.615-0.275-0.615-0.615s0.275-0.615,0.615-0.615
			C402.892,121.885,403.168,122.16,403.168,122.5z"/>
		<path d="M306.436,114.231c0,0.425-0.344,0.769-0.769,0.769c-0.425,0-0.769-0.344-0.769-0.769c0-0.425,0.344-0.769,0.769-0.769
			C306.092,113.462,306.436,113.806,306.436,114.231z"/>
		<circle cx="446.936" cy="413.02" r="1.75"/>
		<circle cx="205.667" cy="431.75" r="1.75"/>
		<path d="M453.783,346.115c0,0.34-0.275,0.615-0.615,0.615c-0.34,0-0.615-0.275-0.615-0.615c0-0.34,0.275-0.615,0.615-0.615
			C453.507,345.5,453.783,345.775,453.783,346.115z"/>
		<path d="M471.206,387.5c0,0.425-0.344,0.77-0.769,0.77s-0.769-0.345-0.769-0.77s0.344-0.77,0.769-0.77
			S471.206,387.075,471.206,387.5z"/>
		<path d="M152.783,340.615c0,0.34-0.275,0.615-0.615,0.615s-0.615-0.275-0.615-0.615c0-0.34,0.275-0.615,0.615-0.615
			S152.783,340.275,152.783,340.615z"/>
		<path d="M130.936,365.115c0,0.426-0.344,0.77-0.769,0.77s-0.769-0.344-0.769-0.77c0-0.424,0.344-0.768,0.769-0.768
			S130.936,364.691,130.936,365.115z"/>
		<path d="M117.668,244c0,0.426-0.344,0.77-0.769,0.77c-0.425,0-0.769-0.344-0.769-0.77c0-0.424,0.344-0.769,0.769-0.769
			C117.323,243.231,117.668,243.576,117.668,244z"/>
		<path d="M158.725,335.557c0,0.586-0.474,1.058-1.058,1.058s-1.058-0.473-1.058-1.058c0-0.583,0.474-1.057,1.058-1.057
			S158.725,334.974,158.725,335.557z"/>
		<path d="M216.725,420.557c0,0.586-0.474,1.059-1.058,1.059s-1.058-0.473-1.058-1.059c0-0.582,0.474-1.057,1.058-1.057
			S216.725,419.975,216.725,420.557z"/>
		<circle cx="223.667" cy="88" r="0.769"/>
	</g>
</g>
</svg>
